<?xml version="1.0" standalone="no"?>
<!DOCTYPE svg PUBLIC "-//W3C//DTD SVG 20010904//EN"
 "http://www.w3.org/TR/2001/REC-SVG-20010904/DTD/svg10.dtd">
<svg version="1.0" xmlns="http://www.w3.org/2000/svg"
 width="256.000000pt" height="256.000000pt" viewBox="0 0 256.000000 256.000000"
 preserveAspectRatio="xMidYMid meet">
<metadata>
Created by potrace 1.11, written by Peter Selinger 2001-2013
</metadata>
<g transform="translate(0.000000,256.000000) scale(0.100000,-0.100000)"
fill="#000000" stroke="none">
<path d="M428 2163 c-14 -9 -31 -27 -37 -40 -8 -17 -11 -280 -11 -844 0 -748
1 -823 17 -849 9 -16 27 -33 40 -39 16 -7 175 -11 484 -11 502 0 502 0 528 57
8 17 11 236 11 703 l0 680 180 0 180 0 0 -681 c0 -617 2 -684 17 -709 24 -41
53 -50 166 -50 105 0 132 8 164 50 17 21 19 1657 2 1693 -26 57 -26 57 -528
57 -309 0 -468 -4 -484 -11 -13 -6 -31 -23 -40 -39 -15 -25 -17 -92 -17 -709
l0 -681 -180 0 -180 0 0 680 c0 467 -3 686 -11 703 -20 45 -58 57 -171 57 -78
0 -109 -5 -130 -17z"/>
</g>
</svg>
